<svg xmlns="http://www.w3.org/2000/svg" viewBox="0 0 112.359 84.269"><g id="レイヤー_2" data-name="レイヤー 2"><g id="レイヤー_1-2" data-name="レイヤー 1"><path d="M112.359,84.269V56.18H28.09V84.269ZM98.314,65.543a4.682,4.682,0,1,1-4.681,4.681A4.68,4.68,0,0,1,98.314,65.543Zm-79.587,4.4a21.386,21.386,0,0,1-1.091-42.275,29.222,29.222,0,0,1,58.361,0A21.4,21.4,0,0,1,93.455,46.816H84.134c-1.307-9.855-12.519-10.922-17.088-11.24.547-9.167-2.6-26.213-20.23-26.213-20.777,0-20.407,22.238-20.229,26.213-4.424-.173-17.224,1.6-17.224,13.193a12.094,12.094,0,0,0,9.364,11.755Z" style="fill:gray"/></g></g></svg>