<svg xmlns="http://www.w3.org/2000/svg" viewBox="0 0 135.5 117.5"><g id="レイヤー_2" data-name="レイヤー 2"><g id="レイヤー_1-2" data-name="レイヤー 1"><path id="database-2" d="M15.012,45C8.674,45,0,46.5,0,51.542V74.458C0,79.5,9.314,81,15.012,81,20.686,81,30,79.5,30,74.458V51.542C30,46.5,21.053,45,15.012,45Zm0,3C20.47,48,27,49.363,27,51.542c0,2.372-7.657,3.542-11.988,3.542C9.894,55.084,3,53.726,3,51.542,3,49.166,10.219,48,15.012,48ZM27,74.079C27,76.705,19.343,78,15.012,78,9.894,78,3,76.5,3,74.079V71.02c3.176,2.013,7.756,2.67,12.012,2.67S23.826,73.033,27,71.02Zm0-7.31c0,2.627-7.657,3.921-11.988,3.921C9.894,70.69,3,69.186,3,66.769V63.223c3.174,2.011,7.756,2.669,12.012,2.669S23.833,65.229,27,63.223ZM15.012,62.892C9.872,62.892,3,61.383,3,58.972V55.414c3.176,2.013,7.756,2.67,12.012,2.67s8.814-.658,11.988-2.67v3.558C27,61.6,19.3,62.892,15.012,62.892Z" style="fill:gray"/><path id="database-2-2" data-name="database-2" d="M113.018,0C103.511,0,90.5,2.252,90.5,9.813V44.187C90.5,51.748,104.47,54,113.018,54c8.512,0,22.482-2.252,22.482-9.813V9.813C135.5,2.25,122.079,0,113.018,0Zm0,4.5C121.205,4.5,131,6.545,131,9.813c0,3.557-11.485,5.313-17.982,5.313C105.34,15.126,95,13.089,95,9.813,95,6.249,105.828,4.5,113.018,4.5ZM131,43.618c0,3.94-11.485,5.882-17.982,5.882C105.34,49.5,95,47.245,95,43.618V39.03c4.764,3.019,11.633,4.006,18.018,4.006,6.365,0,13.221-.987,17.982-4.006Zm0-10.964c0,3.939-11.485,5.882-17.982,5.882C105.34,38.536,95,36.279,95,32.654v-5.32c4.761,3.017,11.633,4,18.018,4s13.232-.993,17.982-4Zm-17.982-5.816c-7.71,0-18.018-2.264-18.018-5.88V15.622c4.764,3.019,11.633,4,18.018,4,6.365,0,13.221-.987,17.982-4v5.336C131,24.9,119.455,26.838,113.018,26.838Z" style="fill:gray"/><path id="database-2-3" data-name="database-2" d="M102.009,90.5c-4.753,0-11.259,1.126-11.259,4.906v17.188c0,3.78,6.985,4.906,11.259,4.906,4.256,0,11.241-1.126,11.241-4.906V95.406C113.25,91.625,106.54,90.5,102.009,90.5Zm0,2.25c4.093,0,8.991,1.022,8.991,2.656,0,1.779-5.743,2.657-8.991,2.657C98.17,98.063,93,97.045,93,95.406,93,93.624,98.414,92.75,102.009,92.75ZM111,112.309c0,1.97-5.743,2.941-8.991,2.941-3.839,0-9.009-1.127-9.009-2.941v-2.294c2.382,1.51,5.817,2,9.009,2s6.61-.493,8.991-2Zm0-5.482c0,1.97-5.743,2.941-8.991,2.941-3.839,0-9.009-1.129-9.009-2.941v-2.66c2.381,1.508,5.817,2,9.009,2s6.616-.5,8.991-2Zm-8.991-2.908c-3.855,0-9.009-1.132-9.009-2.94V98.311c2.382,1.509,5.817,2,9.009,2s6.61-.493,8.991-2v2.668C111,102.951,105.228,103.919,102.009,103.919Z" style="fill:gray"/><polygon points="45.58 64.009 78.815 41.728 75.891 37.404 41.271 61.14 41.245 61.123 41.201 61.188 36.454 64.443 38.363 65.451 38.353 65.467 76.812 91.068 79.704 86.725 45.58 64.009" style="fill:gray"/></g></g></svg>