<svg xmlns="http://www.w3.org/2000/svg" viewBox="0 0 98.068 98.068"><g id="レイヤー_2" data-name="レイヤー 2"><g id="レイヤー_1-2" data-name="レイヤー 1"><path d="M73.551,16.345a8.173,8.173,0,1,1,8.172,8.172A8.181,8.181,0,0,1,73.551,16.345Zm-8.172,0A16.345,16.345,0,1,0,81.723,0,16.345,16.345,0,0,0,65.379,16.345Zm8.172,65.378A8.173,8.173,0,1,1,81.723,89.9,8.18,8.18,0,0,1,73.551,81.723Zm-8.172,0A16.345,16.345,0,1,0,81.723,65.379,16.345,16.345,0,0,0,65.379,81.723ZM8.172,49.034a8.173,8.173,0,1,1,8.173,8.172A8.181,8.181,0,0,1,8.172,49.034ZM0,49.034A16.345,16.345,0,1,0,16.345,32.689,16.346,16.346,0,0,0,0,49.034ZM63.969,33.208l-9.823,11.74H40.494a22.868,22.868,0,0,1,0,8.172H54.146l9.823,11.74a24.586,24.586,0,0,1,6.53-4.908L61.292,49.034,70.5,38.116A24.667,24.667,0,0,1,63.969,33.208Z" style="fill:gray"/></g></g></svg>