<svg xmlns="http://www.w3.org/2000/svg" viewBox="0 0 92.935 92.935"><g id="レイヤー_2" data-name="レイヤー 2"><g id="レイヤー_1-2" data-name="レイヤー 1"><path d="M69.7,38.843V13.971L46.328,0,23.234,13.82V38.986L0,51.47V79.413L23.76,92.935,46.467,79.8,69.175,92.935l23.76-13.522V51.621Zm-4.426.139L48.543,48.214V29.023l16.732-9.832ZM46.32,5.255,62.863,15.307,46.336,25.023l-16.171-9.89ZM6.931,52.783l18.5-9.8,16.407,9.36L23.764,62.673Zm19.04,13.89L44.256,56.229V75.808L25.971,86.484ZM51.188,52.167l16.445-9.254L86.1,52.957,69.19,62.673ZM88.509,76.652l-17.12,9.832V66.673l17.12-9.828Z" style="fill:gray"/></g></g></svg>